<svg width="30" height="30" viewBox="0 0 30 30" fill="none" xmlns="http://www.w3.org/2000/svg">
<path d="M27.5 14.9988L27.5 15.0012C27.5007 15.3044 27.4212 15.6033 27.2681 15.8689C27.115 16.1346 26.8932 16.3585 26.6232 16.5178L26.6209 16.5192L5.33635 29.2311L5.33617 29.2312C5.05274 29.4006 4.72716 29.4936 4.39312 29.4997C4.05908 29.5057 3.73008 29.4245 3.44023 29.2654L3.43911 29.2647C3.15276 29.1084 2.91576 28.8813 2.75128 28.608C2.58692 28.3349 2.50054 28.025 2.5 27.7101V2.28994C2.50054 1.97496 2.58692 1.66506 2.75128 1.39196C2.91576 1.11866 3.15276 0.891558 3.43911 0.735252L3.43911 0.735253L3.44023 0.734636C3.73008 0.575455 4.05909 0.494275 4.39312 0.500314C4.72716 0.506353 5.05274 0.599365 5.33617 0.768804L5.33635 0.768915L26.6209 13.4808L26.6232 13.4822C26.8932 13.6415 27.115 13.8654 27.2681 14.1311C27.4212 14.3967 27.5007 14.6956 27.5 14.9988Z" fill="white" stroke="black"/>
</svg>
